<mxfile host="app.diagrams.net" modified="2024-07-05T14:04:25.758Z" agent="Mozilla/5.0 (Windows NT 10.0; Win64; x64) AppleWebKit/537.36 (KHTML, like Gecko) Chrome/126.0.0.0 Safari/537.36 Edg/126.0.0.0" etag="paCC_COmaW08l_YVrSF0" version="24.6.4" type="github">
  <diagram name="Page-1" id="90a13364-a465-7bf4-72fc-28e22215d7a0">
    <mxGraphModel dx="1631" dy="1693" grid="1" gridSize="13" guides="1" tooltips="1" connect="1" arrows="1" fold="1" page="0" pageScale="1.5" pageWidth="1169" pageHeight="826" background="none" math="0" shadow="0">
      <root>
        <mxCell id="0" style=";html=1;" />
        <mxCell id="1" style=";html=1;" parent="0" />
        <mxCell id="3a17f1ce550125da-1" value="Software Control" style="whiteSpace=wrap;html=1;shadow=1;fontSize=20;fillColor=#f5f5f5;strokeColor=#666666;strokeWidth=2;dashed=1;" parent="1" vertex="1">
          <mxGeometry x="797" y="344" width="150" height="60" as="geometry" />
        </mxCell>
        <mxCell id="3a17f1ce550125da-13" style="edgeStyle=elbowEdgeStyle;rounded=0;html=1;startArrow=none;startFill=0;jettySize=auto;orthogonalLoop=1;fontSize=18;elbow=vertical;" parent="1" source="3a17f1ce550125da-2" target="3a17f1ce550125da-4" edge="1">
          <mxGeometry relative="1" as="geometry" />
        </mxCell>
        <mxCell id="3a17f1ce550125da-14" style="edgeStyle=elbowEdgeStyle;rounded=0;html=1;startArrow=none;startFill=0;jettySize=auto;orthogonalLoop=1;fontSize=18;elbow=vertical;" parent="1" source="3a17f1ce550125da-2" target="3a17f1ce550125da-5" edge="1">
          <mxGeometry relative="1" as="geometry" />
        </mxCell>
        <mxCell id="3a17f1ce550125da-15" style="edgeStyle=elbowEdgeStyle;rounded=0;html=1;startArrow=none;startFill=0;jettySize=auto;orthogonalLoop=1;fontSize=18;elbow=vertical;" parent="1" source="3a17f1ce550125da-2" target="3a17f1ce550125da-6" edge="1">
          <mxGeometry relative="1" as="geometry" />
        </mxCell>
        <mxCell id="3a17f1ce550125da-16" style="edgeStyle=elbowEdgeStyle;rounded=0;html=1;startArrow=none;startFill=0;jettySize=auto;orthogonalLoop=1;fontSize=18;elbow=vertical;" parent="1" source="3a17f1ce550125da-2" target="3a17f1ce550125da-7" edge="1">
          <mxGeometry relative="1" as="geometry" />
        </mxCell>
        <mxCell id="3a17f1ce550125da-17" style="edgeStyle=elbowEdgeStyle;rounded=0;html=1;startArrow=none;startFill=0;jettySize=auto;orthogonalLoop=1;fontSize=18;" parent="1" source="3a17f1ce550125da-10" target="3a17f1ce550125da-2" edge="1">
          <mxGeometry relative="1" as="geometry">
            <Array as="points">
              <mxPoint x="907" y="754" />
            </Array>
          </mxGeometry>
        </mxCell>
        <mxCell id="3a17f1ce550125da-2" value="Custom switch Matrix&lt;div&gt;&lt;br&gt;&lt;/div&gt;&lt;div&gt;(switches, couplers, mixer, amps, attenu, splitters)&lt;/div&gt;" style="whiteSpace=wrap;html=1;shadow=1;fontSize=18;fillColor=#f5f5f5;strokeColor=#666666;" parent="1" vertex="1">
          <mxGeometry x="787" y="454" width="170" height="280" as="geometry" />
        </mxCell>
        <mxCell id="3a17f1ce550125da-4" value="Spectrum Analyzer" style="whiteSpace=wrap;html=1;shadow=1;fontSize=18;fillColor=#f5f5f5;strokeColor=#666666;" parent="1" vertex="1">
          <mxGeometry x="1037" y="444" width="120" height="60" as="geometry" />
        </mxCell>
        <mxCell id="3a17f1ce550125da-5" value="Network Analyzer" style="whiteSpace=wrap;html=1;shadow=1;fontSize=18;fillColor=#f5f5f5;strokeColor=#666666;" parent="1" vertex="1">
          <mxGeometry x="1037" y="524" width="120" height="60" as="geometry" />
        </mxCell>
        <mxCell id="3a17f1ce550125da-6" value="Power Meter" style="whiteSpace=wrap;html=1;shadow=1;fontSize=18;fillColor=#f5f5f5;strokeColor=#666666;" parent="1" vertex="1">
          <mxGeometry x="1037" y="604" width="120" height="60" as="geometry" />
        </mxCell>
        <mxCell id="3a17f1ce550125da-7" value="Freq. Count" style="whiteSpace=wrap;html=1;shadow=1;fontSize=18;fillColor=#f5f5f5;strokeColor=#666666;" parent="1" vertex="1">
          <mxGeometry x="1037" y="684" width="120" height="60" as="geometry" />
        </mxCell>
        <mxCell id="3a17f1ce550125da-20" style="edgeStyle=elbowEdgeStyle;rounded=0;html=1;startArrow=none;startFill=0;jettySize=auto;orthogonalLoop=1;fontSize=18;elbow=vertical;" parent="1" source="3a17f1ce550125da-8" target="3a17f1ce550125da-2" edge="1">
          <mxGeometry relative="1" as="geometry">
            <Array as="points">
              <mxPoint x="757" y="514" />
            </Array>
          </mxGeometry>
        </mxCell>
        <mxCell id="3a17f1ce550125da-8" value="Vector Signal Generator" style="whiteSpace=wrap;html=1;shadow=1;fontSize=18;fillColor=#f5f5f5;strokeColor=#666666;" parent="1" vertex="1">
          <mxGeometry x="597" y="444" width="120" height="150" as="geometry" />
        </mxCell>
        <mxCell id="3a17f1ce550125da-21" style="edgeStyle=elbowEdgeStyle;rounded=0;html=1;startArrow=none;startFill=0;jettySize=auto;orthogonalLoop=1;fontSize=18;elbow=vertical;" parent="1" source="3a17f1ce550125da-9" target="3a17f1ce550125da-2" edge="1">
          <mxGeometry relative="1" as="geometry" />
        </mxCell>
        <mxCell id="3a17f1ce550125da-9" value="ARB / Mod Source" style="whiteSpace=wrap;html=1;shadow=1;fontSize=18;fillColor=#f5f5f5;strokeColor=#666666;" parent="1" vertex="1">
          <mxGeometry x="597" y="634" width="120" height="60" as="geometry" />
        </mxCell>
        <mxCell id="3a17f1ce550125da-10" value="DUT" style="whiteSpace=wrap;html=1;shadow=1;fontSize=18;fillColor=#f5f5f5;strokeColor=#666666;" parent="1" vertex="1">
          <mxGeometry x="799.5" y="774" width="145" height="120" as="geometry" />
        </mxCell>
        <mxCell id="3a17f1ce550125da-18" style="edgeStyle=elbowEdgeStyle;rounded=0;html=1;startArrow=none;startFill=0;jettySize=auto;orthogonalLoop=1;fontSize=18;elbow=vertical;" parent="1" source="3a17f1ce550125da-11" target="3a17f1ce550125da-10" edge="1">
          <mxGeometry relative="1" as="geometry" />
        </mxCell>
        <mxCell id="3a17f1ce550125da-11" value="DC Power Supplies" style="whiteSpace=wrap;html=1;shadow=1;fontSize=18;fillColor=#f5f5f5;strokeColor=#666666;" parent="1" vertex="1">
          <mxGeometry x="597" y="804" width="120" height="60" as="geometry" />
        </mxCell>
        <mxCell id="3a17f1ce550125da-22" style="edgeStyle=elbowEdgeStyle;rounded=0;html=1;startArrow=none;startFill=0;jettySize=auto;orthogonalLoop=1;fontSize=18;" parent="1" source="3a17f1ce550125da-10" target="3a17f1ce550125da-2" edge="1">
          <mxGeometry relative="1" as="geometry">
            <mxPoint x="937" y="784" as="sourcePoint" />
            <mxPoint x="937" y="744" as="targetPoint" />
            <Array as="points">
              <mxPoint x="927" y="754" />
              <mxPoint x="907" y="754" />
            </Array>
          </mxGeometry>
        </mxCell>
        <mxCell id="3a17f1ce550125da-23" style="edgeStyle=elbowEdgeStyle;rounded=0;html=1;startArrow=none;startFill=0;jettySize=auto;orthogonalLoop=1;fontSize=18;" parent="1" edge="1">
          <mxGeometry relative="1" as="geometry">
            <mxPoint x="887" y="774" as="sourcePoint" />
            <mxPoint x="887" y="734" as="targetPoint" />
            <Array as="points">
              <mxPoint x="887" y="754" />
              <mxPoint x="887" y="754" />
            </Array>
          </mxGeometry>
        </mxCell>
        <mxCell id="3a17f1ce550125da-24" style="edgeStyle=elbowEdgeStyle;rounded=0;html=1;startArrow=none;startFill=0;jettySize=auto;orthogonalLoop=1;fontSize=18;" parent="1" edge="1">
          <mxGeometry relative="1" as="geometry">
            <mxPoint x="857" y="734" as="sourcePoint" />
            <mxPoint x="857" y="774" as="targetPoint" />
            <Array as="points">
              <mxPoint x="857" y="754" />
              <mxPoint x="887" y="764" />
            </Array>
          </mxGeometry>
        </mxCell>
        <mxCell id="3a17f1ce550125da-25" style="edgeStyle=elbowEdgeStyle;rounded=0;html=1;startArrow=none;startFill=0;jettySize=auto;orthogonalLoop=1;fontSize=18;" parent="1" edge="1">
          <mxGeometry relative="1" as="geometry">
            <mxPoint x="837" y="734" as="sourcePoint" />
            <mxPoint x="837" y="774" as="targetPoint" />
            <Array as="points">
              <mxPoint x="837" y="754" />
              <mxPoint x="867" y="764" />
            </Array>
          </mxGeometry>
        </mxCell>
        <mxCell id="3a17f1ce550125da-26" style="edgeStyle=elbowEdgeStyle;rounded=0;html=1;startArrow=none;startFill=0;jettySize=auto;orthogonalLoop=1;fontSize=18;" parent="1" edge="1">
          <mxGeometry relative="1" as="geometry">
            <mxPoint x="817" y="734" as="sourcePoint" />
            <mxPoint x="817" y="774" as="targetPoint" />
            <Array as="points">
              <mxPoint x="817" y="754" />
              <mxPoint x="847" y="764" />
            </Array>
          </mxGeometry>
        </mxCell>
        <mxCell id="TOEXqHApflu-hWh2hMGy-6" style="edgeStyle=orthogonalEdgeStyle;rounded=0;orthogonalLoop=1;jettySize=auto;html=1;entryX=0;entryY=0.5;entryDx=0;entryDy=0;" edge="1" parent="1" source="TOEXqHApflu-hWh2hMGy-1" target="TOEXqHApflu-hWh2hMGy-2">
          <mxGeometry relative="1" as="geometry" />
        </mxCell>
        <mxCell id="TOEXqHApflu-hWh2hMGy-1" value="IFU&lt;div&gt;(fetch)&lt;/div&gt;" style="whiteSpace=wrap;html=1;shadow=1;fontSize=18;fillColor=#f5f5f5;strokeColor=#666666;" vertex="1" parent="1">
          <mxGeometry x="584.5" y="1053" width="145" height="120" as="geometry" />
        </mxCell>
        <mxCell id="TOEXqHApflu-hWh2hMGy-7" style="edgeStyle=orthogonalEdgeStyle;rounded=0;orthogonalLoop=1;jettySize=auto;html=1;entryX=0;entryY=0.5;entryDx=0;entryDy=0;" edge="1" parent="1" source="TOEXqHApflu-hWh2hMGy-2" target="TOEXqHApflu-hWh2hMGy-3">
          <mxGeometry relative="1" as="geometry" />
        </mxCell>
        <mxCell id="TOEXqHApflu-hWh2hMGy-2" value="IDU&lt;div&gt;(decode)&lt;/div&gt;" style="whiteSpace=wrap;html=1;shadow=1;fontSize=18;fillColor=#f5f5f5;strokeColor=#666666;" vertex="1" parent="1">
          <mxGeometry x="812" y="1053" width="145" height="120" as="geometry" />
        </mxCell>
        <mxCell id="TOEXqHApflu-hWh2hMGy-8" style="edgeStyle=orthogonalEdgeStyle;rounded=0;orthogonalLoop=1;jettySize=auto;html=1;entryX=0;entryY=0.5;entryDx=0;entryDy=0;" edge="1" parent="1" source="TOEXqHApflu-hWh2hMGy-3" target="TOEXqHApflu-hWh2hMGy-4">
          <mxGeometry relative="1" as="geometry" />
        </mxCell>
        <mxCell id="TOEXqHApflu-hWh2hMGy-3" value="MEM&lt;div&gt;(search and preserve)&lt;/div&gt;" style="whiteSpace=wrap;html=1;shadow=1;fontSize=18;fillColor=#f5f5f5;strokeColor=#666666;" vertex="1" parent="1">
          <mxGeometry x="1037" y="1053" width="145" height="120" as="geometry" />
        </mxCell>
        <mxCell id="TOEXqHApflu-hWh2hMGy-9" style="edgeStyle=orthogonalEdgeStyle;rounded=0;orthogonalLoop=1;jettySize=auto;html=1;" edge="1" parent="1" source="TOEXqHApflu-hWh2hMGy-4" target="TOEXqHApflu-hWh2hMGy-5">
          <mxGeometry relative="1" as="geometry" />
        </mxCell>
        <mxCell id="TOEXqHApflu-hWh2hMGy-4" value="EXE&lt;div&gt;(execute)&lt;/div&gt;" style="whiteSpace=wrap;html=1;shadow=1;fontSize=18;fillColor=#f5f5f5;strokeColor=#666666;" vertex="1" parent="1">
          <mxGeometry x="1261" y="1053" width="145" height="120" as="geometry" />
        </mxCell>
        <mxCell id="TOEXqHApflu-hWh2hMGy-5" value="WB&lt;div&gt;(write back)&lt;/div&gt;" style="whiteSpace=wrap;html=1;shadow=1;fontSize=18;fillColor=#f5f5f5;strokeColor=#666666;" vertex="1" parent="1">
          <mxGeometry x="1495" y="1053" width="145" height="120" as="geometry" />
        </mxCell>
        <mxCell id="TOEXqHApflu-hWh2hMGy-10" value="" style="endArrow=none;html=1;rounded=0;" edge="1" parent="1">
          <mxGeometry width="50" height="50" relative="1" as="geometry">
            <mxPoint x="1248" y="594" as="sourcePoint" />
            <mxPoint x="1248" y="494" as="targetPoint" />
          </mxGeometry>
        </mxCell>
        <mxCell id="TOEXqHApflu-hWh2hMGy-11" value="" style="endArrow=none;html=1;rounded=0;" edge="1" parent="1">
          <mxGeometry width="50" height="50" relative="1" as="geometry">
            <mxPoint x="624" y="-104" as="sourcePoint" />
            <mxPoint x="624" y="-676" as="targetPoint" />
          </mxGeometry>
        </mxCell>
        <mxCell id="TOEXqHApflu-hWh2hMGy-12" value="" style="endArrow=none;html=1;rounded=0;" edge="1" parent="1">
          <mxGeometry width="50" height="50" relative="1" as="geometry">
            <mxPoint x="1352" y="-104" as="sourcePoint" />
            <mxPoint x="1352" y="-676" as="targetPoint" />
          </mxGeometry>
        </mxCell>
        <mxCell id="TOEXqHApflu-hWh2hMGy-13" value="" style="endArrow=none;html=1;rounded=0;" edge="1" parent="1">
          <mxGeometry width="50" height="50" relative="1" as="geometry">
            <mxPoint x="886" y="-104" as="sourcePoint" />
            <mxPoint x="883.5" y="-676" as="targetPoint" />
          </mxGeometry>
        </mxCell>
        <mxCell id="TOEXqHApflu-hWh2hMGy-14" value="" style="endArrow=none;html=1;rounded=0;" edge="1" parent="1">
          <mxGeometry width="50" height="50" relative="1" as="geometry">
            <mxPoint x="1612" y="-104" as="sourcePoint" />
            <mxPoint x="1612" y="-676" as="targetPoint" />
          </mxGeometry>
        </mxCell>
        <mxCell id="TOEXqHApflu-hWh2hMGy-15" value="&lt;font color=&quot;#ea6b66&quot; style=&quot;font-size: 18px;&quot;&gt;&lt;b style=&quot;&quot;&gt;IF&lt;/b&gt;&lt;/font&gt;" style="text;strokeColor=none;align=center;fillColor=none;html=1;verticalAlign=middle;whiteSpace=wrap;rounded=0;" vertex="1" parent="1">
          <mxGeometry x="442" y="-715" width="104" height="39" as="geometry" />
        </mxCell>
        <mxCell id="TOEXqHApflu-hWh2hMGy-16" value="&lt;font color=&quot;#ea6b66&quot;&gt;&lt;span style=&quot;font-size: 18px;&quot;&gt;&lt;b&gt;ID&lt;/b&gt;&lt;/span&gt;&lt;/font&gt;" style="text;strokeColor=none;align=center;fillColor=none;html=1;verticalAlign=middle;whiteSpace=wrap;rounded=0;" vertex="1" parent="1">
          <mxGeometry x="695.5" y="-715" width="104" height="39" as="geometry" />
        </mxCell>
        <mxCell id="TOEXqHApflu-hWh2hMGy-17" value="&lt;font color=&quot;#ea6b66&quot; style=&quot;font-size: 18px;&quot;&gt;&lt;b style=&quot;&quot;&gt;EX&lt;/b&gt;&lt;/font&gt;" style="text;strokeColor=none;align=center;fillColor=none;html=1;verticalAlign=middle;whiteSpace=wrap;rounded=0;" vertex="1" parent="1">
          <mxGeometry x="1057.5" y="-715" width="104" height="39" as="geometry" />
        </mxCell>
        <mxCell id="TOEXqHApflu-hWh2hMGy-18" value="&lt;font color=&quot;#ea6b66&quot;&gt;&lt;span style=&quot;font-size: 18px;&quot;&gt;&lt;b&gt;MEM&lt;/b&gt;&lt;/span&gt;&lt;/font&gt;" style="text;strokeColor=none;align=center;fillColor=none;html=1;verticalAlign=middle;whiteSpace=wrap;rounded=0;" vertex="1" parent="1">
          <mxGeometry x="1430" y="-715" width="104" height="39" as="geometry" />
        </mxCell>
        <mxCell id="TOEXqHApflu-hWh2hMGy-19" value="&lt;font color=&quot;#ea6b66&quot; style=&quot;font-size: 18px;&quot;&gt;&lt;b style=&quot;&quot;&gt;WB&lt;/b&gt;&lt;/font&gt;" style="text;strokeColor=none;align=center;fillColor=none;html=1;verticalAlign=middle;whiteSpace=wrap;rounded=0;" vertex="1" parent="1">
          <mxGeometry x="1677" y="-715" width="104" height="39" as="geometry" />
        </mxCell>
        <mxCell id="TOEXqHApflu-hWh2hMGy-20" value="&lt;b&gt;&lt;font style=&quot;font-size: 16px;&quot;&gt;Multipluy&lt;/font&gt;&lt;/b&gt;" style="shape=trapezoid;perimeter=trapezoidPerimeter;whiteSpace=wrap;html=1;fixedSize=1;rotation=90;fillColor=#f8cecc;strokeColor=#b85450;" vertex="1" parent="1">
          <mxGeometry x="455" y="-468" width="169" height="39" as="geometry" />
        </mxCell>
        <mxCell id="TOEXqHApflu-hWh2hMGy-23" value="" style="endArrow=none;html=1;rounded=0;strokeWidth=2;" edge="1" parent="1">
          <mxGeometry width="50" height="50" relative="1" as="geometry">
            <mxPoint x="442" y="-546" as="sourcePoint" />
            <mxPoint x="518" y="-494" as="targetPoint" />
            <Array as="points">
              <mxPoint x="442" y="-494" />
            </Array>
          </mxGeometry>
        </mxCell>
        <mxCell id="TOEXqHApflu-hWh2hMGy-25" value="&lt;font style=&quot;font-size: 14px;&quot;&gt;&lt;b&gt;+4&lt;/b&gt;&lt;/font&gt;" style="whiteSpace=wrap;html=1;aspect=fixed;fillColor=#f8cecc;strokeColor=#b85450;" vertex="1" parent="1">
          <mxGeometry x="494" y="-325" width="52" height="52" as="geometry" />
        </mxCell>
        <mxCell id="TOEXqHApflu-hWh2hMGy-26" value="" style="endArrow=none;html=1;rounded=0;strokeWidth=2;" edge="1" parent="1">
          <mxGeometry width="50" height="50" relative="1" as="geometry">
            <mxPoint x="416" y="-559" as="sourcePoint" />
            <mxPoint x="518" y="-455" as="targetPoint" />
            <Array as="points">
              <mxPoint x="416" y="-455" />
            </Array>
          </mxGeometry>
        </mxCell>
        <mxCell id="TOEXqHApflu-hWh2hMGy-27" value="" style="endArrow=none;html=1;rounded=0;" edge="1" parent="1">
          <mxGeometry width="50" height="50" relative="1" as="geometry">
            <mxPoint x="455" y="-403" as="sourcePoint" />
            <mxPoint x="519" y="-403" as="targetPoint" />
          </mxGeometry>
        </mxCell>
        <mxCell id="TOEXqHApflu-hWh2hMGy-28" value="" style="whiteSpace=wrap;html=1;aspect=fixed;fillColor=#f8cecc;strokeColor=#b85450;" vertex="1" parent="1">
          <mxGeometry x="390" y="-427" width="65" height="65" as="geometry" />
        </mxCell>
        <mxCell id="TOEXqHApflu-hWh2hMGy-29" value="" style="triangle;whiteSpace=wrap;html=1;" vertex="1" parent="1">
          <mxGeometry x="390" y="-388" width="21" height="26" as="geometry" />
        </mxCell>
        <mxCell id="TOEXqHApflu-hWh2hMGy-32" value="" style="endArrow=none;html=1;rounded=0;exitX=0;exitY=0.75;exitDx=0;exitDy=0;strokeWidth=2;" edge="1" parent="1" source="TOEXqHApflu-hWh2hMGy-25">
          <mxGeometry width="50" height="50" relative="1" as="geometry">
            <mxPoint x="481" y="-286" as="sourcePoint" />
            <mxPoint x="390" y="-400" as="targetPoint" />
            <Array as="points">
              <mxPoint x="340" y="-286" />
              <mxPoint x="340" y="-400" />
            </Array>
          </mxGeometry>
        </mxCell>
        <mxCell id="TOEXqHApflu-hWh2hMGy-34" value="" style="endArrow=none;html=1;rounded=0;strokeWidth=2;" edge="1" parent="1">
          <mxGeometry width="50" height="50" relative="1" as="geometry">
            <mxPoint x="547" y="-288" as="sourcePoint" />
            <mxPoint x="597" y="-429" as="targetPoint" />
            <Array as="points">
              <mxPoint x="597" y="-288" />
            </Array>
          </mxGeometry>
        </mxCell>
        <mxCell id="TOEXqHApflu-hWh2hMGy-36" value="" style="endArrow=none;html=1;rounded=0;" edge="1" parent="1">
          <mxGeometry width="50" height="50" relative="1" as="geometry">
            <mxPoint x="559" y="-431" as="sourcePoint" />
            <mxPoint x="663" y="-431" as="targetPoint" />
          </mxGeometry>
        </mxCell>
        <mxCell id="TOEXqHApflu-hWh2hMGy-37" value="" style="whiteSpace=wrap;html=1;aspect=fixed;" vertex="1" parent="1">
          <mxGeometry x="656" y="-518" width="156" height="156" as="geometry" />
        </mxCell>
      </root>
    </mxGraphModel>
  </diagram>
</mxfile>
